# xmcd CD database file
#
# Track frame offsets:
#	187
#	13282
#	28305
#	41520
#	56750
#	70200
#	82812
#	94312
#	107970
#	116975
#	128502
#	137997
#	148630
#	163415
#	183592
#	203875
#
# Disc length: 2873 seconds
#
# Revision: 0
# Processed by: cddbd v1.5PL3 Copyright (c) Steve Scherf et al.
# Submitted via: CDex 1.50Beta7
#
DISCID=f60b3710
DTITLE=Django Reinhardt - DJANGO PLAYS ORIGINALS
DYEAR=1900
DGENRE=Jazz
TTITLE0=Blue Drag
TTITLE1=Ultrafox
TTITLE2=DJangology
TTITLE3=Nuages
TTITLE4=Swing Guitars
TTITLE5=Minor Swing
TTITLE6=Swing 39
TTITLE7=Swing 41
TTITLE8=Vendredi 13
TTITLE9=Swing Dynamique
TTITLE10=Rhythm Futur
TTITLE11=Douce Ambiance
TTITLE12=Melodie Au Crepuscule
TTITLE13=Daphne
TTITLE14=Manoir De Mes Reves
TTITLE15=Dance Nuptiale
EXTD=
EXTT0=
EXTT1=
EXTT2=
EXTT3=
EXTT4=
EXTT5=
EXTT6=
EXTT7=
EXTT8=
EXTT9=
EXTT10=
EXTT11=
EXTT12=
EXTT13=
EXTT14=
EXTT15=
PLAYORDER=
